<?xml version="1.0" encoding="UTF-8" standalone="no"?>
<!-- Created with Inkscape (http://www.inkscape.org/) -->

<svg
   width="499.99997mm"
   height="500.00003mm"
   viewBox="0 0 499.99997 500.00003"
   version="1.1"
   id="svg1"
   xml:space="preserve"
   inkscape:export-filename="bitmap.png"
   inkscape:export-xdpi="96"
   inkscape:export-ydpi="96"
   xmlns:inkscape="http://www.inkscape.org/namespaces/inkscape"
   xmlns:sodipodi="http://sodipodi.sourceforge.net/DTD/sodipodi-0.dtd"
   xmlns="http://www.w3.org/2000/svg"
   xmlns:svg="http://www.w3.org/2000/svg"><sodipodi:namedview
     id="namedview1"
     pagecolor="#ffffff"
     bordercolor="#000000"
     borderopacity="0.25"
     inkscape:showpageshadow="2"
     inkscape:pageopacity="0.0"
     inkscape:pagecheckerboard="0"
     inkscape:deskcolor="#d1d1d1"
     inkscape:document-units="mm" /><defs
     id="defs1" /><g
     inkscape:label="Layer 1"
     inkscape:groupmode="layer"
     id="layer1"
     transform="translate(1.6666749,-61.189188)"><path
       fill="#494c4e"
       d="M 248.33332,61.189189 A 249.99998,250.38061 0 0 0 -1.6666748,311.5698 a 240.38888,240.75487 0 0 0 1.38888889,25.59446 249.99998,250.38061 0 0 0 497.22219591,0 240.38888,240.75487 0 0 0 1.38891,-25.59446 249.99998,250.38061 0 0 0 -250,-250.380611 z M 398.88887,434.53451 c -0.27777,0 -1.66667,2.2256 -1.94444,2.2256 a 193.74999,194.04498 0 0 1 -297.222222,0 c -0.277777,0 -1.666665,-2.2256 -1.944444,-2.2256 a 14.222221,14.243875 0 0 1 -2.499999,-7.51142 14.499999,14.522076 0 0 1 9.444445,-13.35364 c 20.55555,-6.95501 40.27777,-13.63182 45.83333,-15.02284 a 4.4444443,4.451211 0 0 1 0.83333,-3.6166 13.61111,13.631833 0 0 1 11.94445,-10.01522 l 35.27777,-2.78201 a 57.69444,57.782281 0 0 0 -5.27778,-21.97785 v -0.27822 a 78.166664,78.285674 0 0 0 -12.5,-21.69964 106.38888,106.55086 0 0 1 -21.94444,-66.21177 93.888883,94.031831 0 0 1 86.11112,-99.59583 h 6.66666 a 93.888883,94.031831 0 0 1 86.11112,99.59583 106.38888,106.55086 0 0 1 -21.94446,66.21177 78.166664,78.285674 0 0 0 -12.49998,21.69964 v 0.27822 a 57.69444,57.782281 0 0 0 -5.27778,21.97785 l 35.27778,2.78201 a 13.61111,13.631833 0 0 1 11.94444,10.01522 4.4444443,4.451211 0 0 1 0.83334,3.6166 c 5.55555,1.39102 25.27776,8.06783 45.83331,15.02284 a 13.61111,13.631833 0 0 1 6.94445,20.86506 z"
       id="path1"
       style="stroke-width:11.7593" /></g></svg>
