<?xml version="1.0" encoding="UTF-8" standalone="no"?>
<!-- Uploaded to: SVG Repo, www.svgrepo.com, Generator: SVG Repo Mixer Tools -->

<svg
   width="100"
   height="100"
   viewBox="0 0 2.25 2.25"
   version="1.1"
   id="svg1"
   sodipodi:docname="profile-default-svgrepo-com (1).svg"
   xmlns:inkscape="http://www.inkscape.org/namespaces/inkscape"
   xmlns:sodipodi="http://sodipodi.sourceforge.net/DTD/sodipodi-0.dtd"
   xmlns="http://www.w3.org/2000/svg"
   xmlns:svg="http://www.w3.org/2000/svg">
  <defs
     id="defs1" />
  <sodipodi:namedview
     id="namedview1"
     pagecolor="#ffffff"
     bordercolor="#000000"
     borderopacity="0.25"
     inkscape:showpageshadow="2"
     inkscape:pageopacity="0.0"
     inkscape:pagecheckerboard="0"
     inkscape:deskcolor="#d1d1d1" />
  <path
     fill="#494c4e"
     d="M 1.125,0 A 1.125,1.1267129 0 0 0 0,1.1267129 1.08175,1.083397 0 0 0 0.00625,1.241888 a 1.125,1.1267129 0 0 0 2.2375,0 A 1.08175,1.083397 0 0 0 2.25,1.1267129 1.125,1.1267129 0 0 0 1.125,0 Z m 0.6775,1.6800541 c -0.00125,0 -0.0075,0.010015 -0.00875,0.010015 a 0.871875,0.87320248 0 0 1 -1.3375,0 c -0.00125,0 -0.0075,-0.010015 -0.00875,-0.010015 A 0.064,0.06409744 0 0 1 0.43625,1.6462527 0.06525,0.06534935 0 0 1 0.47875,1.5861614 C 0.57125,1.5548638 0.66,1.5248181 0.685,1.5185586 A 0.02,0.02003045 0 0 1 0.68875,1.5022838 0.06125,0.06134326 0 0 1 0.7425,1.4572153 L 0.90125,1.4446963 A 0.259625,0.26002029 0 0 0 0.8775,1.3457959 V 1.344544 A 0.35175,0.35228556 0 0 0 0.82125,1.2468956 0.47875,0.47947893 0 0 1 0.7225,0.94894263 0.4225,0.42314328 0 0 1 1.11,0.50076128 H 1.14 A 0.4225,0.42314328 0 0 1 1.5275,0.94894263 0.47875,0.47947893 0 0 1 1.42875,1.2468956 0.35175,0.35228556 0 0 0 1.3725,1.344544 v 0.00125 a 0.259625,0.26002029 0 0 0 -0.02375,0.0989 L 1.5075,1.457213 A 0.06125,0.06134326 0 0 1 1.56125,1.502281 0.02,0.02003045 0 0 1 1.565,1.518556 C 1.59,1.524816 1.67875,1.554861 1.77125,1.586159 A 0.06125,0.06134326 0 0 1 1.8025,1.680052 Z"
     id="path1"
     style="stroke-width:1" />
</svg>
